<svg width="41" height="33" viewBox="0 0 41 33" fill="none" xmlns="http://www.w3.org/2000/svg">
<path d="M34.4992 2.76975C27.3979 4.51744 20.2456 6.27616 13.7965 9.8061C12.2225 10.6803 10.7105 11.5945 9.29373 12.7019C8.00799 13.6741 6.59118 14.7815 5.69987 16.0958C5.33975 16.6544 4.93962 17.275 4.98087 17.9606C4.97109 18.6572 5.3986 19.1524 5.97922 19.6146C7.26459 20.619 8.93213 21.167 10.5045 21.5217C14.7803 22.5212 19.2481 22.6779 23.6014 22.058C24.2759 21.9657 24.9987 22.3438 25.153 23.0583C25.2963 23.7218 24.8782 24.5066 24.1527 24.6099C19.7483 25.2408 15.3537 25.1752 10.9978 24.2999C9.0461 23.9202 7.11234 23.3763 5.40764 22.4091C3.69191 21.3908 2.17216 19.796 2.35463 17.6732C2.53017 15.7656 3.8257 14.0968 5.14736 12.7963C6.61112 11.4117 8.22106 10.2092 9.95512 9.08674C13.3212 6.86384 17.0347 5.26035 20.8144 3.96308C25.1334 2.44246 29.5407 1.33015 33.959 0.268872C35.5701 -0.186014 36.1214 2.3659 34.4992 2.76975Z" fill="#FBBC04"/>
<path d="M18.7498 16.4297C21.3728 19.1751 24.298 21.5881 27.5653 23.6068C28.5473 24.1959 28.2435 25.7573 27.1207 25.9999C24.813 26.445 22.5052 26.8901 20.2705 27.4262C18.138 27.9403 16.1736 28.7386 14.4436 30.1273C13.8973 30.5658 13.0987 30.5781 12.6091 30.0428C12.1816 29.5475 12.1473 28.6468 12.6936 28.2083C14.6567 26.6624 16.8432 25.6559 19.271 25.0246C21.6988 24.3933 24.1706 23.9661 26.6315 23.488C26.4796 24.2686 26.3277 25.0493 26.1869 25.8811C22.7444 23.7934 19.622 21.2093 16.8528 18.2818C15.6544 16.9381 17.5734 15.188 18.7498 16.4297Z" fill="#FBBC04"/>
</svg>
