<svg width="134" height="24" viewBox="0 0 134 24" fill="none" xmlns="http://www.w3.org/2000/svg">
<path fill-rule="evenodd" clip-rule="evenodd" d="M10.7343 2.13755L0 11.125L8.98745 21.8593L15.7461 16.2006L11.4201 11.0337L15.3958 7.70504L10.7343 2.13755Z" fill="#070707"/>
<path d="M29.9704 4.45455H33.0457V13.9006C33.0457 14.9612 32.7924 15.8892 32.2857 16.6847C31.7838 17.4801 31.0807 18.1004 30.1763 18.5455C29.272 18.9858 28.2185 19.206 27.0158 19.206C25.8084 19.206 24.7526 18.9858 23.8482 18.5455C22.9439 18.1004 22.2407 17.4801 21.7388 16.6847C21.237 15.8892 20.986 14.9612 20.986 13.9006V4.45455H24.0613V13.6378C24.0613 14.1918 24.182 14.6842 24.4235 15.1151C24.6697 15.5459 25.0154 15.8845 25.4604 16.1307C25.9055 16.3769 26.424 16.5 27.0158 16.5C27.6124 16.5 28.1309 16.3769 28.5712 16.1307C29.0163 15.8845 29.3596 15.5459 29.6011 15.1151C29.8473 14.6842 29.9704 14.1918 29.9704 13.6378V4.45455ZM35.519 19V8.09091H38.4523V9.99432H38.5659C38.7648 9.31723 39.0986 8.80587 39.5673 8.46023C40.0361 8.10985 40.5759 7.93466 41.1866 7.93466C41.3382 7.93466 41.5015 7.94413 41.6767 7.96307C41.8519 7.98201 42.0058 8.00805 42.1384 8.04119V10.7259C41.9963 10.6832 41.7998 10.6454 41.5489 10.6122C41.2979 10.5791 41.0683 10.5625 40.8599 10.5625C40.4149 10.5625 40.0171 10.6596 39.6668 10.8537C39.3211 11.0431 39.0465 11.3082 38.8429 11.6491C38.644 11.9901 38.5446 12.383 38.5446 12.8281V19H35.519ZM43.7594 19V4.45455H46.785V9.9233H46.8773C47.0099 9.62973 47.2017 9.33144 47.4526 9.02841C47.7083 8.72064 48.0397 8.46496 48.4469 8.26136C48.8589 8.05303 49.3702 7.94886 49.981 7.94886C50.7765 7.94886 51.5104 8.1572 52.1827 8.57386C52.8551 8.9858 53.3925 9.60843 53.795 10.4418C54.1974 11.2704 54.3986 12.3097 54.3986 13.5597C54.3986 14.7765 54.2022 15.804 53.8092 16.642C53.4209 17.4754 52.8906 18.1075 52.2183 18.5384C51.5506 18.9645 50.8025 19.1776 49.9739 19.1776C49.3868 19.1776 48.8873 19.0805 48.4754 18.8864C48.0682 18.6922 47.7343 18.4484 47.4739 18.1548C47.2135 17.8565 47.0147 17.5559 46.8773 17.2528H46.7424V19H43.7594ZM46.7211 13.5455C46.7211 14.1941 46.8111 14.7599 46.991 15.2429C47.1709 15.7259 47.4313 16.1023 47.7722 16.3722C48.1131 16.6373 48.5274 16.7699 49.0151 16.7699C49.5076 16.7699 49.9242 16.6349 50.2651 16.3651C50.606 16.0904 50.8641 15.7116 51.0393 15.2287C51.2192 14.741 51.3092 14.1799 51.3092 13.5455C51.3092 12.9157 51.2216 12.3617 51.0464 11.8835C50.8712 11.4053 50.6131 11.0312 50.2722 10.7614C49.9313 10.4915 49.5123 10.3565 49.0151 10.3565C48.5227 10.3565 48.106 10.4867 47.7651 10.7472C47.429 11.0076 47.1709 11.3769 46.991 11.8551C46.8111 12.3333 46.7211 12.8968 46.7211 13.5455ZM59.5283 19.206C58.8322 19.206 58.212 19.0852 57.6675 18.8438C57.123 18.5975 56.6921 18.2353 56.3749 17.7571C56.0624 17.2741 55.9061 16.6728 55.9061 15.9531C55.9061 15.3471 56.0174 14.8381 56.2399 14.4261C56.4625 14.0142 56.7655 13.6828 57.149 13.4318C57.5325 13.1809 57.9681 12.9915 58.4558 12.8636C58.9482 12.7358 59.4643 12.6458 60.0041 12.5938C60.6386 12.5275 61.15 12.4659 61.5382 12.4091C61.9265 12.3475 62.2082 12.2576 62.3834 12.1392C62.5586 12.0208 62.6462 11.8456 62.6462 11.6136V11.571C62.6462 11.1212 62.5041 10.7732 62.22 10.527C61.9407 10.2808 61.5429 10.1577 61.0268 10.1577C60.4823 10.1577 60.0491 10.2784 59.7271 10.5199C59.4052 10.7566 59.1921 11.0549 59.0879 11.4148L56.2896 11.1875C56.4317 10.5246 56.711 9.9517 57.1277 9.46875C57.5444 8.98106 58.0818 8.60701 58.7399 8.34659C59.4028 8.08144 60.1698 7.94886 61.041 7.94886C61.6471 7.94886 62.2271 8.01989 62.7811 8.16193C63.3398 8.30398 63.8346 8.52415 64.2655 8.82244C64.7011 9.12074 65.0444 9.50426 65.2953 9.97301C65.5463 10.437 65.6717 10.9934 65.6717 11.642V19H62.8024V17.4872H62.7172C62.542 17.8281 62.3076 18.1288 62.0141 18.3892C61.7205 18.6449 61.3678 18.8461 60.9558 18.9929C60.5439 19.1349 60.068 19.206 59.5283 19.206ZM60.3947 17.1179C60.8398 17.1179 61.2328 17.0303 61.5737 16.8551C61.9146 16.6752 62.1821 16.4337 62.3763 16.1307C62.5704 15.8277 62.6675 15.4844 62.6675 15.1009V13.9432C62.5728 14.0047 62.4426 14.0616 62.2768 14.1136C62.1159 14.161 61.9336 14.206 61.73 14.2486C61.5264 14.2865 61.3228 14.322 61.1192 14.3551C60.9156 14.3835 60.7309 14.4096 60.5652 14.4332C60.2101 14.4853 59.9 14.5682 59.6348 14.6818C59.3696 14.7955 59.1637 14.9493 59.0169 15.1435C58.8701 15.3329 58.7967 15.5696 58.7967 15.8537C58.7967 16.2656 58.9459 16.5805 59.2442 16.7983C59.5472 17.0114 59.9307 17.1179 60.3947 17.1179ZM71.0446 12.6932V19H68.019V8.09091H70.9026V10.0156H71.0304C71.2719 9.38116 71.6767 8.87926 72.2449 8.50994C72.8131 8.13589 73.502 7.94886 74.3116 7.94886C75.0692 7.94886 75.7297 8.11458 76.2932 8.44602C76.8566 8.77746 77.2946 9.25095 77.6071 9.86648C77.9196 10.4773 78.0759 11.2064 78.0759 12.054V19H75.0503V12.5938C75.055 11.9261 74.8846 11.4053 74.5389 11.0312C74.1933 10.6525 73.7174 10.4631 73.1114 10.4631C72.7042 10.4631 72.3443 10.5507 72.0318 10.7259C71.7241 10.901 71.4826 11.1567 71.3074 11.4929C71.1369 11.8243 71.0493 12.2244 71.0446 12.6932ZM85.1462 19V4.45455H94.7768V6.99006H88.2214V10.456H94.1376V12.9915H88.2214V19H85.1462ZM100.917 19.2131C99.8135 19.2131 98.8595 18.9787 98.0545 18.5099C97.2544 18.0365 96.6365 17.3783 96.2009 16.5355C95.7652 15.688 95.5474 14.7055 95.5474 13.5881C95.5474 12.4612 95.7652 11.4763 96.2009 10.6335C96.6365 9.78598 97.2544 9.12784 98.0545 8.65909C98.8595 8.18561 99.8135 7.94886 100.917 7.94886C102.02 7.94886 102.972 8.18561 103.772 8.65909C104.577 9.12784 105.197 9.78598 105.633 10.6335C106.068 11.4763 106.286 12.4612 106.286 13.5881C106.286 14.7055 106.068 15.688 105.633 16.5355C105.197 17.3783 104.577 18.0365 103.772 18.5099C102.972 18.9787 102.02 19.2131 100.917 19.2131ZM100.931 16.8693C101.433 16.8693 101.852 16.7273 102.188 16.4432C102.524 16.1544 102.778 15.7614 102.948 15.2642C103.123 14.767 103.211 14.2012 103.211 13.5668C103.211 12.9323 103.123 12.3665 102.948 11.8693C102.778 11.3722 102.524 10.9792 102.188 10.6903C101.852 10.4015 101.433 10.2571 100.931 10.2571C100.424 10.2571 99.9982 10.4015 99.6526 10.6903C99.3116 10.9792 99.0536 11.3722 98.8784 11.8693C98.708 12.3665 98.6227 12.9323 98.6227 13.5668C98.6227 14.2012 98.708 14.767 98.8784 15.2642C99.0536 15.7614 99.3116 16.1544 99.6526 16.4432C99.9982 16.7273 100.424 16.8693 100.931 16.8693ZM108.253 19V8.09091H111.187V9.99432H111.3C111.499 9.31723 111.833 8.80587 112.302 8.46023C112.77 8.10985 113.31 7.93466 113.921 7.93466C114.073 7.93466 114.236 7.94413 114.411 7.96307C114.586 7.98201 114.74 8.00805 114.873 8.04119V10.7259C114.731 10.6832 114.534 10.6454 114.283 10.6122C114.032 10.5791 113.803 10.5625 113.594 10.5625C113.149 10.5625 112.752 10.6596 112.401 10.8537C112.055 11.0431 111.781 11.3082 111.577 11.6491C111.378 11.9901 111.279 12.383 111.279 12.8281V19H108.253ZM116.437 19V8.09091H119.321V10.0156H119.448C119.676 9.37642 120.054 8.87216 120.585 8.50284C121.115 8.13352 121.75 7.94886 122.488 7.94886C123.236 7.94886 123.873 8.13589 124.399 8.50994C124.924 8.87926 125.275 9.38116 125.45 10.0156H125.563C125.786 9.39062 126.188 8.8911 126.771 8.51705C127.358 8.13826 128.052 7.94886 128.852 7.94886C129.87 7.94886 130.696 8.2732 131.33 8.92188C131.97 9.56581 132.289 10.4796 132.289 11.6634V19H129.271V12.2599C129.271 11.6539 129.11 11.1993 128.788 10.8963C128.466 10.5933 128.063 10.4418 127.58 10.4418C127.031 10.4418 126.603 10.617 126.295 10.9673C125.987 11.313 125.833 11.7699 125.833 12.3381V19H122.9V12.196C122.9 11.661 122.746 11.2348 122.438 10.9176C122.135 10.6004 121.735 10.4418 121.238 10.4418C120.902 10.4418 120.599 10.527 120.329 10.6974C120.064 10.8632 119.853 11.0975 119.697 11.4006C119.541 11.6989 119.463 12.0492 119.463 12.4517V19H116.437Z" fill="#070707"/>
</svg>
